<svg xmlns="http://www.w3.org/2000/svg" width="200" height="200" viewBox="0 0 200 200">
  <rect width="200" height="200" fill="#171722"/>
  <path d="M100,65 C87.85,65 78,74.85 78,87 C78,99.15 87.85,109 100,109 C112.15,109 122,99.15 122,87 C122,74.85 112.15,65 100,65 Z M135,135 L128.55,135 C119.55,139.65 110.1,142 100,142 C89.9,142 80.5,139.65 71.45,135 L65,135 C52.45,135 42,145.45 42,158 L42,165 C42,171.65 47.35,177 54,177 L146,177 C152.65,177 158,171.65 158,165 L158,158 C158,145.45 147.55,135 135,135 Z" fill="#3d3d50"/>
  <text x="100" y="50" font-family="Arial" font-size="14" fill="#ffffff" text-anchor="middle">Product Image</text>
</svg> 