<?xml version="1.0" encoding="UTF-8"?>
<svg xmlns="http://www.w3.org/2000/svg" width="100" height="100" viewBox="0 0 100 100">
  <!-- Iron Block -->
  <defs>
    <linearGradient id="ironTop" x1="0%" y1="0%" x2="100%" y2="100%">
      <stop offset="0%" style="stop-color:#E8E8E8" />
      <stop offset="100%" style="stop-color:#C0C0C0" />
    </linearGradient>
    <linearGradient id="ironLeft" x1="0%" y1="0%" x2="100%" y2="100%">
      <stop offset="0%" style="stop-color:#B0B0B0" />
      <stop offset="100%" style="stop-color:#909090" />
    </linearGradient>
    <linearGradient id="ironRight" x1="0%" y1="0%" x2="100%" y2="100%">
      <stop offset="0%" style="stop-color:#A9A9A9" />
      <stop offset="100%" style="stop-color:#808080" />
    </linearGradient>
  </defs>
  
  <!-- Isometric Cube -->
  <g transform="translate(50, 50)">
    <!-- Top face -->
    <polygon points="0,-25 25,0 0,25 -25,0" 
             fill="url(#ironTop)" stroke="#696969" stroke-width="1.5" />
    
    <!-- Left face -->
    <polygon points="-25,0 0,25 0,50 -25,25" 
             fill="url(#ironLeft)" stroke="#696969" stroke-width="1.5" />
    
    <!-- Right face -->
    <polygon points="25,0 0,25 0,50 25,25" 
             fill="url(#ironRight)" stroke="#696969" stroke-width="1.5" />
  </g>
  
  <!-- Metal Features -->
  <circle cx="35" cy="30" r="3" fill="#D3D3D3" stroke="#A9A9A9" stroke-width="0.5" opacity="0.7" />
  <circle cx="60" cy="40" r="2" fill="#D3D3D3" stroke="#A9A9A9" stroke-width="0.5" opacity="0.7" />
  <circle cx="45" cy="60" r="2.5" fill="#D3D3D3" stroke="#A9A9A9" stroke-width="0.5" opacity="0.7" />
  
  <!-- Rivets -->
  <circle cx="30" cy="40" r="1.5" fill="#808080" stroke="#696969" stroke-width="0.5" />
  <circle cx="70" cy="30" r="1.5" fill="#808080" stroke="#696969" stroke-width="0.5" />
  <circle cx="50" cy="70" r="1.5" fill="#808080" stroke="#696969" stroke-width="0.5" />
  <circle cx="60" cy="55" r="1.5" fill="#808080" stroke="#696969" stroke-width="0.5" />
</svg> 