<?xml version="1.0" encoding="UTF-8"?>
<svg width="48" height="48" viewBox="0 0 48 48" fill="none" xmlns="http://www.w3.org/2000/svg">
  <!-- Enhanced glow effects -->
  <defs>
    <filter id="glow" x="-30%" y="-30%" width="160%" height="160%">
      <feGaussianBlur stdDeviation="1.5" result="blur" />
      <feFlood flood-color="#FF0000" flood-opacity="0.4" result="glow-color"/>
      <feComposite in="glow-color" in2="blur" operator="in" result="colored-blur"/>
      <feComposite in="SourceGraphic" in2="colored-blur" operator="over"/>
    </filter>
    
    <filter id="subtle-glow" x="-30%" y="-30%" width="160%" height="160%">
      <feGaussianBlur stdDeviation="1" result="blur" />
      <feFlood flood-color="#FF0000" flood-opacity="0.3" result="glow-color"/>
      <feComposite in="glow-color" in2="blur" operator="in" result="colored-blur"/>
      <feComposite in="SourceGraphic" in2="colored-blur" operator="over"/>
    </filter>
    
    <linearGradient id="redGradient" x1="0%" y1="0%" x2="100%" y2="100%">
      <stop offset="0%" stop-color="#FF3333" />
      <stop offset="100%" stop-color="#990000" />
    </linearGradient>
    
    <radialGradient id="personGradient" cx="50%" cy="50%" r="50%" fx="50%" fy="50%">
      <stop offset="0%" stop-color="#2A2A2A" />
      <stop offset="100%" stop-color="#1A1A1A" />
    </radialGradient>
  </defs>
  
  <!-- Background -->
  <circle cx="24" cy="24" r="22" fill="rgba(0,0,0,0.1)" stroke="none" />
  
  <!-- Person group -->
  <g>
    <!-- Person head -->
    <circle cx="21" cy="13" r="6" fill="url(#personGradient)" stroke="url(#redGradient)" stroke-width="1.8" filter="url(#subtle-glow)"/>
    
    <!-- Person body -->
    <path d="M13 37C13 29 16 22 21 22C26 22 29 29 29 37" fill="none" stroke="#FF0000" stroke-width="1.8" stroke-linecap="round" filter="url(#subtle-glow)"/>
    
    <!-- Person shoulders -->
    <path d="M14 25C14 25 17 23 21 23C25 23 28 25 28 25" fill="none" stroke="#FF0000" stroke-width="1.5" stroke-linecap="round" filter="url(#subtle-glow)"/>
    
    <!-- Person arms -->
    <path d="M15 26L15 35" stroke="#FF0000" stroke-width="1.8" stroke-linecap="round" filter="url(#subtle-glow)"/>
    <path d="M27 26L27 35" stroke="#FF0000" stroke-width="1.8" stroke-linecap="round" filter="url(#subtle-glow)"/>
  </g>
  
  <!-- Padlock group -->
  <g filter="url(#glow)">
    <!-- Padlock body -->
    <rect x="31" y="24" width="11" height="13" rx="3" fill="url(#personGradient)" stroke="url(#redGradient)" stroke-width="1.5"/>
    
    <!-- Padlock arc -->
    <path d="M33 24C33 19 36.5 19 36.5 19C36.5 19 40 19 40 24" fill="none" stroke="url(#redGradient)" stroke-width="1.5" stroke-linecap="round"/>
    
    <!-- Keyhole -->
    <path d="M36.5 29C37.3284 29 38 29.6716 38 30.5C38 31.3284 37.3284 32 36.5 32L36.5 34" stroke="#FF0000" stroke-width="1.5" stroke-linecap="round"/>
  </g>
  
  <!-- Connecting line between person and padlock -->
  <line x1="29" y1="27" x2="31" y2="27" stroke="#FF0000" stroke-width="1.2" stroke-linecap="round" stroke-dasharray="1 1" filter="url(#subtle-glow)"/>
</svg> 