<svg xmlns="http://www.w3.org/2000/svg" viewBox="0 0 24 24" width="24" height="24">
  <defs>
    <linearGradient id="coinGradient" x1="0%" y1="0%" x2="100%" y2="100%">
      <stop offset="0%" stop-color="#ffcc00" />
      <stop offset="100%" stop-color="#ff6600" />
    </linearGradient>
    <filter id="glow" x="-20%" y="-20%" width="140%" height="140%">
      <feGaussianBlur stdDeviation="1" result="blur" />
      <feComposite in="SourceGraphic" in2="blur" operator="over" />
    </filter>
  </defs>
  <circle cx="12" cy="12" r="10" fill="url(#coinGradient)" filter="url(#glow)" />
  <path d="M12 5c-3.9 0-7 3.1-7 7s3.1 7 7 7 7-3.1 7-7-3.1-7-7-7zm0 12.5c-3 0-5.5-2.5-5.5-5.5S9 6.5 12 6.5s5.5 2.5 5.5 5.5-2.5 5.5-5.5 5.5z" fill="#1a1a1a" opacity="0.3" />
  <path d="M13.5 10h-3c-.3 0-.5.2-.5.5v1c0 .3.2.5.5.5H12v4h-1.5c-.3 0-.5.2-.5.5s.2.5.5.5h3c.3 0 .5-.2.5-.5s-.2-.5-.5-.5H12v-4h1.5c.3 0 .5-.2.5-.5v-1c0-.3-.2-.5-.5-.5z" fill="#ffffff" />
  <circle cx="12" cy="8" r="1" fill="#ffffff" />
</svg> 