<svg xmlns="http://www.w3.org/2000/svg" viewBox="0 0 24 24" width="24" height="24">
  <path fill="#ff9900" d="M13.5 8H12V13.5l4.5 2.7.8-1.3-3.8-2.2V8zM12 4c-4.4 0-8 3.6-8 8s3.6 8 8 8 8-3.6 8-8-3.6-8-8-8zm0 14c-3.3 0-6-2.7-6-6s2.7-6 6-6 6 2.7 6 6-2.7 6-6 6z"/>
  <path fill="#ff9900" d="M19 8l-4 4h3c0 3.9-3.1 7-7 7-1.9 0-3.7-.8-5-2.1l-1.4 1.4C6.1 19.8 8.4 21 11 21c5 0 9-4 9-9h3l-4-4z"/>
  <path fill="#ff9900" d="M6 12c0-3.9 3.1-7 7-7 1.9 0 3.7.8 5 2.1l1.4-1.4C17.9 4.2 15.6 3 13 3c-5 0-9 4-9 9H1l4 4 4-4H6z"/>
</svg> 