<svg xmlns="http://www.w3.org/2000/svg" viewBox="0 0 80 50" width="80" height="50">
  <path d="M34.3 16.8l-6.9 16.4h-4.5l-3.4-13c-.2-.8-.4-1.1-1-1.5-1-.6-2.8-1.1-4.3-1.5l.1-.5h7.5c1 0 1.8.6 2 1.7l1.8 9.6 4.5-11.3h4.2z" fill="#0066b2"/>
  <path d="M38.4 33.2h-4l2.5-16.4h4l-2.5 16.4z" fill="#0066b2"/>
  <path d="M52.4 17.1c.8 0 1.6.2 2.3.3l-.4 2.3c-.8-.2-1.4-.4-2.2-.4-1.1 0-1.6.6-1.6 1.1 0 1.3 2.2 1.4 2.2 3.7 0 2.6-2.4 4.1-5.3 4.1-1.1 0-2.3-.2-3-.5l.4-2.4c.8.4 1.9.6 2.8.6.9 0 1.8-.3 1.8-1.2 0-1.4-2.2-1.5-2.2-3.7 0-2.3 2-4 4.9-4z" fill="#0066b2"/>
  <path d="M61.2 17.1c-1 0-1.9.3-1.9.3l-.3 1.9c.5-.2 1.5-.6 2.4-.5 1 0 1.5.6 1.5 1.1 0 .3-.1.6-.1.8h-1.1c-2.2 0-5.2.9-5.2 4 0 1.7 1.2 2.7 3.1 2.7 1.5 0 2.7-.4 3.4-1.1l-.1.9h3.4c.4-2.4 1.1-6.2 1.1-7.4-.1-2.6-2.4-2.7-5.2-2.7zm1.6 6.1c0 .4-.1.7-.2 1-.3.6-1 1.3-2.2 1.3-.6 0-1.2-.3-1.2-1 0-1.2 1.6-1.8 3.6-1.7v.4z" fill="#0066b2"/>
  <path d="M73.4 16.8l-.7 3.5c-.5-.7-1.4-1-2.3-1-2.2 0-4.2 2.1-4.2 5.2 0 2.4 1.3 4 3.4 4 1.1 0 2-.3 2.8-1.3l-.1.9h3.8l2-11.4h-4.7zm-2.8 8.7c-1 0-1.5-.7-1.5-1.8 0-1.5.8-2.6 1.9-2.6 1 0 1.5.7 1.5 1.7 0 1.6-.8 2.7-1.9 2.7z" fill="#0066b2"/>
  <path d="M23.8 27.6l2.3-13.8c.5-3 2.9-5 5.9-5h9.6l-1.2 7.5H37c-1 0-1.7.8-1.9 1.7l-1.9 9.6h-9.4z" fill="#e31528"/>
</svg> 