<svg xmlns="http://www.w3.org/2000/svg" viewBox="0 0 80 50" width="80" height="50">
  <path d="M29.2 21.1c-.3-1.8 0-3 1-4 1.1-1.1 3-1.6 5.5-1.6h7.2c.7 0 1.3.5 1.4 1.2l1.5 9.4c.1.5-.3 1-.8 1.1h-5.4c-.5 0-.9.4-1 .9l-.2 1.1c-.1.5-.5.8-1 .8h-3.9c-.5 0-.8-.4-.8-.9l.1-.3.4-2.8.1-.4c0-.5.5-.9 1-.9h3.2c.7 0 1.3-.5 1.4-1.2l.3-1.9c.1-.6-.4-1.2-1-1.2h-2.6c-.4 0-.9.3-1 .7l-1.2 7.8c-.1.5-.5.8-1 .8h-3.9c-.5 0-.8-.4-.8-.9l.1-.3.8-5 .2-1.2c.1-.5-.3-1-.8-1h-1.2c-.6.1-1.1-.4-1.2-1l-.5-2.1" fill="#009cde"/>
  <path d="M53.6 14.5c.3 1.9 0 3.2-1 4.3-1.1 1.2-3 1.7-5.5 1.7h-7.2c-.7 0-1.3-.5-1.4-1.2l-1.5-9.4c-.1-.5.3-1 .8-1.1h5.4c.5 0 .9-.4 1-.9l.2-1.1c.1-.5.5-.8 1-.8h3.9c.5 0 .8.4.8.9l-.1.3-.4 2.8-.1.4c0 .5-.5.9-1 .9h-3.2c-.7 0-1.3.5-1.4 1.2l-.3 1.9c-.1.6.4 1.2 1 1.2h2.6c.4 0 .9-.3 1-.7l1.2-7.8c.1-.5.5-.8 1-.8h3.9c.5 0 .8.4.8.9l-.1.3-.8 5-.2 1.2c-.1.5.3 1 .8 1h1.2c.6 0 1.1.5 1.2 1.1l.4 1.6" fill="#003087"/>
</svg> 