<svg xmlns="http://www.w3.org/2000/svg" viewBox="0 0 80 50" width="80" height="50">
  <circle cx="40" cy="25" r="17" fill="#f7931a"/>
  <path d="M47.1 22.4c.3-2.1-1.3-3.2-3.5-3.9l.7-2.9-1.7-.4-.7 2.8c-.5-.1-.9-.2-1.4-.3l.7-2.8-1.7-.4-.7 2.9c-.4-.1-.8-.2-1.2-.3l-2.3-.6-.5 1.9s1.3.3 1.2.3c.7.2.8.6.8 1l-.8 3.2c0 .1.1.2.2.3-.1 0-.2-.1-.3-.1l-1.1 4.5c-.1.2-.3.5-.7.4 0 0-1.3-.3-1.3-.3l-.9 2.1 2.2.5c.4.1.8.2 1.2.3l-.7 2.9 1.7.4.7-2.9c.5.1.9.2 1.4.3l-.7 2.9 1.7.4.7-2.9c2.9.6 5.1 0 6.1-2.3.8-1.9 0-3-1.6-3.6 1.1-.3 2-1 2.2-2.5zm-4 5.4c-.6 2.3-4.4 1-5.6.7l1-4c1.2.3 5.1.9 4.6 3.3zm.6-5.9c-.5 2.1-3.9.9-4.8.7l.9-3.6c.9.2 4.2.6 3.9 2.9z" fill="#ffffff"/>
</svg> 