<svg xmlns="http://www.w3.org/2000/svg" viewBox="0 0 80 50" width="80" height="50">
  <rect width="80" height="50" fill="none"/>
  <circle cx="30" cy="25" r="15" fill="#eb001b"/>
  <circle cx="50" cy="25" r="15" fill="#f79e1b"/>
  <path d="M40 14.2c4 3.4 6.5 8.5 6.5 14.2 0 5.7-2.5 10.8-6.5 14.2-4-3.4-6.5-8.5-6.5-14.2 0-5.7 2.5-10.8 6.5-14.2z" fill="#ff5f00"/>
  <path d="M40 42.7c-4.6-3.9-7.5-9.7-7.5-16.2 0-6.5 2.9-12.3 7.5-16.2 4.6 3.9 7.5 9.7 7.5 16.2 0 6.5-2.9 12.3-7.5 16.2z" fill="#ff5f00"/>
</svg> 