<svg xmlns="http://www.w3.org/2000/svg" viewBox="0 0 24 24" width="24" height="24">
  <path fill="#00A8EA" d="M7.076 21.337H2.47c-.354 0-.634-.306-.58-.66L4.27 3.95c.033-.234.234-.41.47-.41h6.37c2.75 0 4.7 1.83 4.34 4.45-.9 6.55-4.92 5.42-7.08 5.42-.92 0-1.25.24-1.43 1.07l-.94 6.86z"/>
  <path fill="#00599E" d="M19.11 8.95c.33 2.32-.31 5.7-1.35 7.94-1.33 2.84-3.76 4.31-7.2 4.31h-.93c-.35 0-.65.29-.7.64l-.53 3.44c-.05.26-.27.46-.54.46H4.19c-.36 0-.64-.31-.59-.66l.39-2.5.74-4.7-.02.12c.05-.35.35-.63.7-.63h1.32c2.85 0 5.08-.54 6.72-1.9 1.65-1.36 2.67-3.34 3.03-5.97.14-.9.24-1.78.24-2.58 0-1.1-.2-1.96-.66-2.65-.56 2.56-2.77 3.72-5.5 3.72H6.13c-.55 0-1.02.4-1.1.95L3.34 19.5l-.38 2.41-.82 5.16c-.04.26.15.5.41.5h3.12c.33 0 .62-.24.67-.58l.53-3.41z"/>
</svg> 